<?xml version="1.0" encoding="utf-8"?>
<!-- Generator: Adobe Illustrator 17.1.0, SVG Export Plug-In . SVG Version: 6.00 Build 0)  -->
<!DOCTYPE svg PUBLIC "-//W3C//DTD SVG 1.1//EN" "http://www.w3.org/Graphics/SVG/1.1/DTD/svg11.dtd">
<svg version="1.1" id="Layer_2" xmlns="http://www.w3.org/2000/svg" xmlns:xlink="http://www.w3.org/1999/xlink" x="0px" y="0px"
	 viewBox="0 0 1275.6 170.1" enable-background="new 0 0 1275.6 170.1" xml:space="preserve">
<g>
	<g>
		<g>
			<path fill="#030202" d="M66.1,1.9C64.4,26.3,62.7,50.6,61,75c-1,14.4-3.7,31.3-16.2,40.5c-9.8,7.2-23.8,4.7-32.6-2.9
				c-14.2-12.2-3.5-29.3,8-39.3c9.4-8.1,21.6-13.7,34.1-13.9c7.6-0.1,15.8,0.8,21.4,6.5c4.5,4.5,5.3,11.4,5.8,17.4
				c0.4,4.5,0.6,9.4-0.9,13.7c-2.5,7.3-5.3-2.2-5.4-5.1C75.1,83.3,86,61.7,96.7,71.6c4.3,3.9,7.9,12,6.6,17.9
				c-1.9,9.1-17.5-11.7-18.6-13.2c-0.9-1.2-3.5-1.8-2.6,0.5c2.8,7.5,8.7,14.6,15.9,18.1c6.3,3,13.4,2.2,19.7-0.5
				c4.7-2,8.9-5.1,12.8-8.3c3.9-3.2,8.6-7,10.6-11.8c2-4.8-0.8-10-4.8-12.7c-4.6-3.2-10.4-2.4-14.6,1.1c-6.5,5.5-8.5,17.6-7.1,25.6
				c1,5.9,4.5,11.2,10.4,13.1c4.5,1.5,13.5,1.8,14.2-4.7c0.7-5.8-9.1-10.3-13.6-7.9c-3.4,1.8-2.4,6.7-1.5,9.6c0.9,3,4.2,4,7,4.3
				c9.2,0.9,23.1-4.3,25.9-13.9c0.4-1.3-1.4-3.2-2.7-2.7c-10.3,3.5-0.8,17,7.9,13.6c3.4-1.3,4.1-6.2,2.9-9.2
				c-1.6-4.1-5.3-5.9-9.6-5.1c-1.6,0.3,0.7,3.5,2.3,3.2c5.4-1,6,5.7,2.1,8c-2.3,1.4-6.7,0-6.9-2.9c-0.1-2.1,1.7-3.7,3.5-4.3
				c-0.9-0.9-1.8-1.8-2.7-2.7c-2.5,8.4-13.2,12-21.1,12.8c-4.2,0.4-6.5-0.2-6.2-5c0.2-3.4,4.1-3.2,6.4-2.3c2.5,1,3.8,3.1,1.7,5.2
				c-1.6,1.5-4,1.7-6.1,1.7c-9.5,0-11.5-8.9-10.8-16.8c0.7-7.7,4.8-20.9,15-19.2c2.9,0.5,5,2.5,5.6,5.3c1.1,4.8-4,8.8-6.9,11.6
				c-7.3,7.1-16.9,14.3-27.7,13.6c-6.3-0.4-11.5-4.7-15-9.6c-1.6-2.2-2.9-4.6-3.9-7.1c-0.9,0.2-1.8,0.3-2.6,0.5
				c2.4,3.2,17,24.2,23.2,16.8c4.4-5.2-1.1-16.1-4.2-20.6c-5.2-7.6-13.6-9.9-20.5-3.1c-6.7,6.6-14.5,25.3-3.6,32.1
				c4,2.5,6.4-1.5,7.3-5c2.1-8.6,0.7-20-3.3-27.9C73.8,54.8,53.8,54.2,40.1,58c-10.9,3-20.9,9.9-28.5,18.2
				C6.1,82.3,0.9,90.8,1.9,99.3c1.1,9.9,10.2,17.7,18.9,21.3c10.5,4.3,22.2,2.7,30.4-5.4c10.1-10,12.2-25.7,13.1-39.1
				c1.7-24.2,3.4-48.4,5.1-72.6C69.5,2,66.3-0.1,66.1,1.9L66.1,1.9z"/>
		</g>
	</g>
	<g>
		<g>
			<path fill="#030202" d="M37.1,47.8c-5.7-2.3-11.3-4.6-17-6.9c0.4,1,0.7,2,1.1,3c24.6-9.2,53.8-9.4,79.3-4.6
				c2.3,0.4,0.7-2.9-0.8-3.2c-26-4.9-55.6-4.7-80.7,4.6c-1.5,0.6,0.4,2.7,1.1,3c5.7,2.3,11.3,4.6,17,6.9
				C39.5,51.7,38.7,48.4,37.1,47.8L37.1,47.8z"/>
		</g>
	</g>
	<g>
		<g>
			<path fill="#030202" d="M163.9,166.6c-2-0.7-4.6-6.4-5.7-8.6c-2.9-6-4.8-12.4-5.9-18.9c-3-17.5,2.4-34.7,15.7-46.6
				c4.1-3.7,8.9-6.2,14.5-6.3c5.3,0,10.2,3.8,10.5,9.2c0.3,6.1-13.6,15.5-15.9,7.6c-1.1-3.9,2.3-8.6,4.9-11.1c2.6-2.4,6-3.7,9.4-4.5
				c3.9-1,8.9-1.1,12.6-0.6c-0.6-1-1.2-2-1.8-3c-2.3,1.9-3.8,5.1,0.3,6.1c4.5,1,10-1.8,14.6-1.7c-0.7-1-1.5-2-2.2-3.1
				c-4.5,3.4-10.3,10.8-2.9,14.8c8.3,4.5,19.9-1.8,26.3-7c4.6-3.8-0.9-9.3-5.1-9.6c-6-0.4-7.6,9.7-4.8,13.5c6.9,9.5,24.8-3.9,31-8.6
				c1-0.7,2.8-1.7,2.4-3.1c-0.5-2-2.9-3.2-4.6-3.8c-6.7-2.4-10.3,2.9-8.4,9.3c4.5,14.8,31.5,1.5,35.5-7.6c-1.1-0.8-2.1-1.5-3.2-2.3
				c-1.1,5.8-2.2,11.5-3.3,17.3c-0.3,1.4,2.6,4,3.2,2.3c2-6.1,3.7-16.4,11.7-16.7c-0.6-1.1-1.3-2.2-1.9-3.2
				c-3.9,2.1-10.7,5.6-10.2,11c0.3,3.7,4.5,5.6,7.7,6c6,0.6,33-5.6,25-15.6c-5.2-6.5-17.1-0.5-15.9,7.5c0.5,3.4,5,4,7.6,3.4
				c4.6-1.1,9.3-3.7,11.5-8c0.6-1.1-1.6-3.3-2.7-2.7c-5.1,2.6-11.6,8-4.4,12.5c6.5,4.1,16.3,1.6,21.7-3c-0.9-0.9-1.9-1.9-2.8-2.8
				c-2.2,2.2-2,5.4,0.7,7.3c4.4,3,9.8,1.4,14.2-0.8c3.5-1.8,11.3-6.5,10.1-11.5c-0.9-3.5-4.2-5.5-7.4-6.5c-3.3-1-7.3-0.9-10.1,1.3
				c-3,2.3-1.6,7.3,0.6,9.6c3.5,3.7,8.8,5,13.7,5.7c2.6,0.4,5.3,0.6,7.9,0.8c1.4,0.1,3.7-0.2,4.9,0.4c2.4,1.2,1.6-2.1,0-2.9
				c-3.5-1.7-9-1-12.7-1.4c-3.6-0.5-17.7-3.3-11.6-9.5c2.5-2.5,13-1.7,11.1,3.1c-1.7,4.2-8.4,7.7-12.4,9.2c-1.8,0.7-9.9,1.8-6.2-2
				c1.2-1.2-1.6-3.9-2.8-2.8c-3.8,3.3-8.5,4.6-13.5,4.5c-1.2,0-5.8-0.4-5.4-2.5c0.5-2.7,4.7-4.5,6.7-5.5c-0.9-0.9-1.8-1.8-2.7-2.7
				c-2.1,4.1-7.3,6.8-11.8,7.2c-2.5,0.2,1.6-4.9,2.3-5.6c0.9-0.8,7.1-3.4,7.4-0.6c0.3,2.8-4.4,5.3-6.3,6.3
				c-4.2,2.3-8.9,3.8-13.7,4.4c-2,0.3-8.3,0.7-7.3-2.8c1-3.6,6.2-6.2,9-7.8c1.6-0.9-0.7-3.3-1.9-3.2c-9,0.4-11,10.7-13.3,17.8
				c1.1,0.8,2.1,1.5,3.2,2.3c1.1-5.8,2.2-11.5,3.3-17.3c0.3-1.3-2.4-4.1-3.2-2.3c-2.1,4.8-7.7,7.7-12.2,9.8
				c-4.2,2-11.7,4.8-16.1,1.9c-2.4-1.6-1.5-7,0.7-8.3c0.9-0.5,2.2-0.4,3.2-0.2c0.5,0.1,1,0.3,1.4,0.5c2.1,0.9-0.5,0.4,0.6-0.9
				c-2.2,2.6-5.8,4.5-8.6,6.2c-4.2,2.6-8.7,4.9-13.4,6.3c-1.5,0.5-4.1,1.1-5.6,0.2c-2.2-1.3,0.1-7.2,1.2-8.6c2-2.4,5.9-0.6,3.2,2.3
				c-3.3,3.5-9.2,5.8-13.7,7.2c-1.8,0.5-9,2.1-9.9-0.8c-1.1-3.2,4-6.9,6-8.4c1.3-1-1.3-3.1-2.2-3.1c-2.7,0-5.4,0.5-8,1
				c-1.7,0.3-3.3,0.6-5,0.8c-1.3-0.1-1.1,0.5,0.5,2c0.1-0.7,1.5-1.6,2-2c1.1-0.9-0.9-2.9-1.8-3c-11.5-1.6-30,2.5-29.4,17.4
				c0.6,14.6,28.5,6.4,21.6-8.6c-3.6-7.8-12-10.8-20.1-8.8c-10.4,2.6-18.7,14-22.9,23.3c-7.2,15.8-4.5,35,2.6,50.3
				c1.9,4.2,4.9,10.8,9.7,12.5C166.9,170.6,165.3,167.1,163.9,166.6L163.9,166.6z"/>
		</g>
	</g>
</g>
<g>
	<g>
		<g>
			<path fill="#030202" d="M390.6,98.1c-7.7-2.1-15,1.8-11.9,10.5c2.2,6.1,8.1,10.3,14.1,12.2c8.2,2.5,16.2-1.3,22.2-6.8
				c9.3-8.6,12.7-22.1,17.8-33.3c-0.7,0-1.4,0-2,0.1c1.7,1,3.3,2,5,3c-0.4-0.8-0.8-1.6-1.1-2.3c-5,9.6-11.5,31.2,6.6,29.8
				c2.1-0.2-0.1-3.4-1.6-3.3c-3.9,0.3-7-0.3-7.4-4.6c-0.3-3,0.4-6.1,1.3-8.9c1-3.7,2.5-7.3,4.3-10.7c0.4-0.8-0.6-2-1.1-2.3
				c-1.7-1-3.3-2-5-3c-0.6-0.4-1.6-0.8-2,0.1c-6.5,14.4-11.3,34.3-28.4,39.3c-5.2,1.5-10.8,0-15.1-3.1c-3-2.2-5.5-6.2-4.8-10
				c0.9-4.6,6.8-4.2,10-3.3C393.7,101.9,392,98.5,390.6,98.1L390.6,98.1z"/>
		</g>
	</g>
	<g>
		<g>
			<path fill="#030202" d="M468.1,96.8C468.2,96.8,468.2,96.8,468.1,96.8c1,1,3.4,1.1,2.3-0.8c-2.1-3.6-6.8-6.6-10.2-8.7
				c-4.6-2.8-10.9-4.8-14.5,0.5c-3.3,4.9-3.5,13.2,3.3,14.7c6.2,1.3,13.7-2.9,17-7.9c1.1-1.7,1.6-3.6,0.5-5.4
				c-1.1-1.8-3.2-1.6-4.4-0.2c-3.4,4-3.7,13.3,1.7,15.8c2.8,1.3,5.8,1,8.7,0.3c5.4-1.2,12.3-4.3,16-8.5c3.3-3.8,2.2-13-4.3-12.3
				c-7.5,0.9-5.9,13.8-1.5,17.2c5.5,4.2,15,1.2,18.8-4.1c3.9-5.5-5.1-11.3-8.6-14.2c-9.9-8.2-21.7-13.7-34-16.8
				c0.5,1.1,1,2.1,1.5,3.2c13.9-3.1,28.5-3.8,42.7-4.7c2.1-0.1-0.1-3.4-1.6-3.3c-14.4,0.9-29.2,1.7-43.3,4.8c-1.8,0.4,0.8,3,1.5,3.2
				c10.5,2.7,20.3,7.1,29.1,13.5c2.6,1.9,5,4,7.4,6.2c2.2,2.1,4.2,3.6,1.7,6.4c-1.9,2.2-5,3.4-7.7,4.1c-1.6,0.4-3.3,0.5-4.9,0.1
				c-3.2-0.6-3.1-6.3-2.6-8.8c0.7-3.4,5.3-5.4,4.3-0.1c-1.1,5.6-9.6,8.4-14.3,10.1c-2.4,0.9-9.1,3-9.6-1.2c-0.2-2.1,0.3-4.5,0.9-6.5
				c0.3-0.8,0.7-1.5,1.2-2.1c0.8-0.9-1.1-2.4-1.6-0.8c-1.7,5.6-10.7,9.7-16.1,8.5c-3.1-0.7,1.2-9.1,2.4-10.3
				c2.3-2.2,5.9-0.9,8.4,0.3c2.4,1.2,4.6,2.9,6.6,4.7c0.7,0.6,1.4,1.2,2,1.9c0.5,0.5,1.4,1.9,0.5,0.3c0.8-0.3,1.5-0.6,2.3-0.9
				c0,0,0,0,0,0C468.1,93.4,466.4,95.1,468.1,96.8L468.1,96.8z"/>
		</g>
	</g>
	<g>
		<g>
			<path fill="#030202" d="M522.1,93.3c-0.1,0.4,0,0.8,0.2,1.1c0.5,0.9,1.5,1.8,2.6,1.6c1.1-0.2,1.2-2.7,1.3-3.5
				c0.2-2.7-1.1-5.1-2.8-7c-1.7-1.9-5.1-3.9-7.7-3.5c-2.4,0.4-3.8,2.7-4.8,4.6c-1.9,3.8-2.8,11.1,2,13.3c4.2,1.9,10.7-0.1,12.4-4.7
				c0.5-1.5-2.6-3.9-3.2-2.3c-0.9,2.6-3.6,3.9-6.2,4.3c-2.2,0.3-3,0.3-3.2-1.9c-0.1-1.7,0.3-3.3,0.8-4.9c0.5-1.5,1.3-2.9,2.4-4.1
				c1.4-1.5,2.7-1,4.5-0.2c1.7,0.9,2.5,2.5,2.6,4.3c0,0.6-0.1,1.2-0.2,1.8c-0.1,0.4-0.4,0.6,0,0.5c0.9,0.5,1.7,1,2.6,1.6
				c0.1,0.7,0.2,0.9,0.2,0.5C525.6,93.4,522.4,91.2,522.1,93.3z"/>
		</g>
	</g>
	<g>
		<g>
			<path fill="#030202" d="M531.1,153.2c-0.2,0.7-5.3-5.1-5.9-5.9c-2.4-3.6-4.1-7.7-5.5-11.7c-2.8-8.3-3.9-17.2-3.2-25.9
				c0.6-7.8,3.4-15.8,9.9-20.6c6.4-4.8,25.9-7.1,27.3,4.3c0.6,4.9-4.6,7.8-8.3,9.2c-2.1,0.8-9.4,2.1-6.3-2.3
				c2.2-3.1,7.2-4.4,10.6-5.6c6.3-2.1,13.1-2.2,19.7-2.1c4.8,0.1,9.6,0.3,14.2-1.3c3.4-1.2-7-8.9-7.8-9.4c-5.2-3-11.3-1.9-9.4,5.6
				c1.1,4.4,4.8,6.1,9,5.1c3.4-0.8,9-4.2,8.8-8.2c-0.1-1.1-2.6-3.7-3.2-1.9c-2.2,5.9,3.4,9.4,8.4,10.6c4,0.9,13.4,1.5,15.3-3.4
				c-1.1-0.6-2.2-1.3-3.2-1.9c-0.2,2.2-0.4,4.4-0.6,6.7c-0.1,1.8,0.3,5.9-0.4,7.4c0.9,0.2,1.9,0.5,2.8,0.7c-1.7-2.8-2.9-6-4.5-8.9
				c-2.7-4.8-6.4-9-9-13.8c-0.9-1.7-3.4-6.2,0.6-6.6c2.8-0.3,5.7,0,8.5,0.4c5.2,0.8,10.3,3,14.8,5.8c1.1,0.7,6.1,4.5,6.1,4.5
				c-1.4,2.8-2.7,5.3-1.9,8.5c1.1,4,5.5,5.8,9.3,4.7c5.7-1.6,5.6-9.3,4.2-13.7c-1.5-4.7-5.7-8-10.4-8.9c-4.4-0.8-9.4,0.7-12,4.4
				c-3.2,4.4-0.7,10.1,2.1,14c1.2,1.7,3.9,1.3,2.4-0.9c-3.3-4.5-3.9-10.1,1.5-13.1c4.5-2.5,10.7-1.4,13,3.3c1.5,3,1.4,7.3-0.6,10
				c-1.1,1.5-4.6,3.1-6.1,1.3c-2.1-2.6,1.9-5.4,1.8-7.7c-0.1-1.2-0.8-2.2-1.6-3.1c-3.7-4.1-8.8-7-13.8-9.2
				c-5.5-2.5-15.6-5.7-21.5-2.9c-4.5,2.1,2.1,11.9,3.4,13.9c2.9,4.4,6,8.4,8.4,13.1c1,2,1.8,4.1,3,5.9c0.5,0.8,2.2,1.9,2.8,0.7
				c0.8-1.6,0.3-5.2,0.4-7c0.2-2.6,0.4-5.1,0.6-7.7c0.1-1.2-2.6-3.6-3.2-1.9c-2,5.1-19.9,4.1-17.4-2.6c-1.1-0.6-2.2-1.3-3.2-1.9
				c0.2,2.9-4.1,5.2-6.3,6.1c-1.7,0.8-4.7,1.8-5.1-1.1c-0.3-2.3,0.3-5,3.1-4.5c3,0.6,6.2,3.4,8.1,5.6c0.4,0.4-0.2-0.6-1.4-0.3
				c-1.3,0.4-2.7,0.4-4,0.5c-3,0.2-6,0.1-9,0c-5.9-0.1-11.6,0.4-17.4,1.8c-4.9,1.2-11.6,3.3-13.9,8.2c-1.1,2.2,0.5,4.8,2.2,6.1
				c3.5,2.5,8.2,1.3,11.8-0.1c6.2-2.5,10.1-9,6.2-15.1c-4.5-7.1-13.4-8.9-21.3-7.8c-17.3,2.4-21.9,19.9-21,34.9
				c0.6,9.5,3.1,19.2,7.6,27.6c0.9,1.7,11.7,16.6,13.5,10.7C534.8,153.9,531.6,151.5,531.1,153.2L531.1,153.2z"/>
		</g>
	</g>
	<g>
		<g>
			<path fill="#030202" d="M629,146.5c-1.2,2.5-2.4,5-3.6,7.5c0.7,0,1.4,0,2-0.1c-2.4-1.9-3.5-6.5-4.5-9.2c-1.9-5.4-3.2-11-4.1-16.7
				c-2.2-12.8-2.6-26.9,2.6-39.1c2.4-5.7,6.6-10.5,12.2-13.3c8-4.1,19.4-2,19.7,8.6c0.1,3.7-2.4,7.3-5.7,8.7
				c-3.5,1.5-4.6-1.9-2.9-4.5c1.7-2.5,4.9-3.9,7.6-5.2c6.2-3,14.2-4.6,21-3.3c-0.5-1.1-1-2.1-1.5-3.2c-3.8,1.4-8.2,3.8-8.2,8.4
				c0,3.5,3,6.4,5.7,8.1c9.3,5.7,18.1-0.4,20.2-10.1c0.2-1.1-2.1-4-3-2.6c-2.7,4.1-5.3,10.1,0.1,13.3c3.8,2.3,9.1,0.6,11.2-3.3
				c-1.1-0.8-2.1-1.5-3.2-2.3c-4.2,9.7,6.8,12.8,14.2,11.1c3.9-0.9,8.3-3.4,9.2-7.6c0.8-3.6-1.3-8.4-3.8-11c-4.5-4.6-10,0-9.5,5.4
				c1,10.9,16.2,13,24.5,13.3c2,0.1-0.1-3.2-1.6-3.3c-5.8-0.3-17.4-0.9-19.5-7.9c-0.7-2.3,0.8-6.9,3.9-6.1c1.9,0.5,2.4,4.6,2.7,6
				c0.6,3.1-2.3,5.4-4.7,6.6c-4.5,2.3-15.9,3.8-12.4-4.3c0.6-1.4-2.3-3.9-3.2-2.3c-1.1,2-3.1,3-5.3,3.2c-5.3,0.6-1.3-6.3,0-8.2
				c-1-0.9-2-1.7-3-2.6c-1.6,7.3-6.6,13.1-14.6,10.7c-2.4-0.7-4.8-2.6-4.8-5.3c0-3.4,4.6-5.3,7.2-6.3c1.6-0.6-0.6-3-1.5-3.2
				c-8.8-1.6-18.2,0.9-25.9,5c-5.4,2.9-9.9,11.6-1.6,14.3c7.3,2.3,12.6-6,11.4-12.5c-1.2-6.9-7.2-12.9-14.5-13.4
				c-18.2-1.1-26.2,17.9-27.6,32.9c-1.4,15,1.3,31.3,7.1,45.2c1.2,2.8,2.6,5.9,5.1,7.9c0.6,0.4,1.6,0.8,2-0.1c1.2-2.5,2.4-5,3.6-7.5
				C632.9,147.4,629.8,144.9,629,146.5L629,146.5z"/>
		</g>
	</g>
</g>
<g>
	<g>
		<g>
			<path d="M832.2,127.6c-3.9-2-3.3-10.9-3.3-14.4c0.1-8.7,1.5-17.4,3.1-25.9c3.6-19.1,8.9-38,15.7-56.2c1.3-3.5,2.7-7,4.2-10.4
				c0.9-1.9,3.7-5.4,2.2-7.4c-1.1-1.6-4.1-4-6.2-4c-1.6,0-2.3,2.9-2.9,4c-2.1,3.9-4.2,7.7-6.3,11.6c-11.1,20.4-22.3,40.7-34.6,60.4
				c-6.5,10.4-13.2,20.8-21.5,29.8c-5.7,6.2-13.7,13.3-22.7,11.8c-16.2-2.7-4.2-25.1,1.1-31.9c8.4-10.7,20.3-19.9,32.2-26.3
				c11.9-6.4,26.4-7.5,38.5-1.2c13.8,7.2,15.8,21.9,10.8,35.4c-0.7,1.9-4.9,10.1-7.1,5.4c-2.6-5.6-0.1-13.8,1.6-19.3
				c-0.5,0.1-1.1,0.2-1.6,0.3c5.2,2.9,11.2,5.8,17.3,5.1c6.1-0.7,9.3-6.5,11.1-11.7c-1.1-0.8-2.1-1.5-3.2-2.3
				c-1.3,4.4-5.9,19.9,3.1,20.3c7.2,0.3,10-13.1,10.3-18c0.1-1.2-2.9-3.6-3.2-1.9c-1.1,5.8-2.2,11.7-3.3,17.5
				c1.1,0.6,2.2,1.3,3.2,1.9c0.1-8.1,11.1-12,17-15.4c1.5-0.9-0.7-3.4-1.9-3.2c-6.8,0.7-9.7,9.4-6.1,14.8
				c6.9,10.4,16.9-7.4,19.6-12.3c0.7-1.3-2.2-3.8-3.2-2.3c-2.2,3.5-6.2,10.3-2.6,14.1c4.4,4.6,14.2-0.6,10.5-6.7
				c-0.9-1.5-6-4.4-1.8-5c2.4-0.4,5.3-0.8,5.2,2.1c-0.1,1.9-0.7,3.8-0.8,5.7c-0.5,8.4,9.5,6.3,14.1,4c1.6-0.8-0.9-3.9-2.3-3.2
				c-2.3,1.2-8.8,4.4-8.5,0c0.2-2.7,1.3-5.3,0.4-8c-1.4-4.3-9.6-5.5-12.7-2.8c-3.2,2.8,3.6,6.5,3.7,8.3c0.1,2.9-3.5,4.4-5.8,4.1
				c-0.7-0.1,0.7-4.2,0.9-4.7c0.7-2,1.8-3.9,2.9-5.7c-1.1-0.8-2.1-1.5-3.2-2.3c-0.4,0.8-11.9,19.6-14.2,13.2
				c-1.5-4.1,0.9-9.7,5.5-10.1c-0.6-1.1-1.3-2.2-1.9-3.2c-6.6,3.8-17.9,7.9-18,17c0,1.2,2.9,3.6,3.2,1.9c1.1-5.8,2.2-11.7,3.3-17.5
				c-1.1-0.6-2.2-1.3-3.2-1.9c-0.3,5.5-2.1,11.4-6.3,15.2c-1.8,1.6-2.5,1.6-2.7-0.7c-0.4-4.3,1-8.8,2.1-12.8c0.4-1.5-2.6-4-3.2-2.3
				c-1.8,5.2-4.6,10.1-10.5,10.8c-5.1,0.6-10.4-2.4-14.7-4.8c-0.5-0.3-1.4-0.4-1.6,0.3c-2.2,7.1-4.7,16.9-0.2,23.6
				c3.1,4.6,7.9,2.5,10.2-1.5c10.2-17.8,2.6-37.9-15.7-45.9c-24.2-10.6-49.6,7.6-65.8,24.3c-8.2,8.4-19.3,24.2-11.5,36.2
				c6,9.3,17.6,7.9,25.7,2.3c6.6-4.5,11.8-11,16.5-17.3c9.4-12.5,17.5-26.2,25.4-39.7c6.3-10.7,12.3-21.6,18.3-32.5
				c3.5-6.4,7-12.8,10.4-19.2c0.2-0.3,2.3-4.6,2.5-4.4c0.4,0.2,0.7,0.4,1.1,0.7c1.1,0.9,1.1,0.8,0.2,0c-0.8,1.6-1.6,3.3-2.4,4.9
				c-9.6,21.3-15.8,44.8-20.1,67.7c-1.8,9.7-3.3,19.6-2.9,29.5c0.2,5.3,1.2,12.1,6.4,14.8C834.5,131.7,833.7,128.4,832.2,127.6
				L832.2,127.6z"/>
		</g>
	</g>
</g>
<g>
	<g>
		<g>
			<path d="M927.3,72.8c14.2,11.7,37.4-0.6,51-7.7c3-1.6,14.9-6.8,11.4-11.8c-3.8-5.3-11.7,5.2-13.5,7.8c-6.8,9.5-11,21.5-13.5,32.8
				c-1.7,7.5-4,20.6,4.3,25.4c4,2.3,8.7,0.9,12.7-0.8c8.9-3.9,16.6-10.9,23.8-17.4c8.1-7.3,15.9-15.5,21.4-25
				c2.4-4.1,4.8-9.6,3.4-14.5c-2.8-9.8-14.1-3.9-18.6,0.7c-5.2,5.4-8.4,12.6-10.6,19.7c-2.1,6.9-5.3,17.5-0.7,24
				c3.9,5.5,11.9,4.6,17.6,3.4c9.1-2,17.8-6.5,25.4-11.7c9.1-6.3,26.8-20.5,22.1-34c-3.3-9.4-13.4-6-18.2-0.1
				c-4.9,6.1-7.2,14.3-8.4,21.9c-1,6.1-2.3,12.6,2,17.8c11.4,14.1,33.3-6.5,40.9-14.8c5.8-6.4,16.8-21.3,11-30.6
				c-6.4-10.3-15.3,10.1-16.7,13.9c-2,5.3-3.5,10.8-4.8,16.3c-1,4.3-2.1,8.8-0.3,13.1c2.3,5.3,8.7,5,12.8,2.1
				c4.9-3.4,4.1-11.1-0.9-14c-6.2-3.5-11.2,3.5-10.1,9.4c1.9,11.2,25,2,30.6-1.1c4.4-2.3,7-8,2.3-11.5c-5.7-4.2-9.9,6.5-10.5,10.2
				c-1.7,12,28.1,5.4,28.5-4.3c0.1-1.9-2.4-5.4-4.4-3.2c-3,3.3-4.2,9.2-1.4,13c5.4,7.5,15.4-4.8,8.5-9.7c-9-6.4-11.8,11.7-13.2,16.9
				c-2.9,10.5-6.3,21.4-7.2,32.3c-0.1,1.2,2.7,3.6,3.2,1.9c3.1-9.3,11.1-17,18-23.7c6-5.7,12.7-10.2,19-15.4
				c4.3-3.7-1.7-9.3-5.2-3.1c-3.4,6,1.4,10.8,7.7,10.4c6.3-0.4,13.5-8.9,9.5-15c-3.5-5.4-10.3-3.7-12.3,2c-2.3,6.5,3.2,10.1,9,9.5
				c8.6-0.9,17.7-6.4,23.8-12.3c4.3-4.2,7.4-10.3,7.9-16.4c0.2-2.4-1.1-7.7-4.6-6.7c-5.4,1.5-7.3,13.4-8.3,17.5
				c-1.2,4.7-3.2,17.5,5.3,17.5c6.2,0,7.2-7.5,4.3-11.7c-3.7-5.2-10.5-2.5-9.5,4.1c1.7,11.8,28.2-0.3,31.2-7c0.3-0.7-0.3-1.5-0.7-2
				c0,0,0,0-0.1-0.1c-0.4-0.4-1.4-1.1-2-0.7c-8.1,4.4-9.1,17.4,1.8,18c9.1,0.5,12.7-17.2,2.9-18.3c-7.5-0.8-11.6,14-2.8,15
				c4.4,0.5,9-1.7,12.8-3.7c2.8-1.5,7.3-3.9,8.2-7.2c0.4-1.4-2.2-4-3.2-2.3c-2.6,4.6-6.1,13.9,2.2,15c5.8,0.8,13-4.1,15-9.5
				c0.4-1.2-2.2-3.9-3-2.6c-2.2,3.5-2.8,8.1,0.5,11.2c4.7,4.5,10.7-1.9,13.5-5.3c4-4.8,1.4-9-2.8-12.6c-2.3-1.9-4.8-3.5-7.4-4.8
				c-1.1-0.6-2.2-1.1-3.3-1.5c-1.4-0.6-1.6-1.2-0.4,0.2c0.1,0.8,0.2,1.6,0.3,2.4c0.8-0.3,3.9-0.1,5.3-0.1c4.2-0.1,8.4-0.3,12.6-0.5
				c7.4-0.5,16.2-0.7,23-4.1c1.6-0.8-0.9-3.9-2.3-3.2c-7.2,3.7-16.6,3.7-24.5,4.1c-3.7,0.2-7.5,0.3-11.2,0.4c-1.6,0-3.7-0.3-5.2,0.2
				c-1.2,0.4-0.1,1.9,0.3,2.4c0.8,1,2.8,1.3,3.9,1.8c3.4,1.6,7.1,3.7,9.6,6.6c3.4,4-3.2,9.3-6.4,11.3c-4.8,3.1-4.4-2.9-2.6-5.7
				c-1-0.9-2-1.7-3-2.6c-1.4,3.9-5.2,6.4-9,7.8c-0.7,0.3-4.5,1.5-4.9,0.2c-0.9-2.8,1.8-6.8,3-9c-1.1-0.8-2.1-1.5-3.2-2.3
				c-1.2,4.7-19.6,12-19.6,9c0-2.8,1.9-6.2,4.5-7.4c2.4-1.1,2.8,2.2,2.7,3.7c-0.1,2.1-1.4,4.3-2.7,5.8c-2,2.4-7.7,3.3-7.9-1.1
				c-0.1-2.7,3.3-7.2,5.6-8.5c-0.7-0.2-1.3-0.5-2-0.7c0,0,0,0,0.1,0.1c-0.2-0.7-0.5-1.3-0.7-2c-3,6.9-14.9,9.9-21.5,10.5
				c-0.9,0.1-1.8,0.1-2.7,0c-1.5-0.2-0.2-1.8,0.1-2.8c1.2-3.8,4.8-1.2,4.2,1.8c-0.4,1.8-1.8,3.8-3.8,4.1c-4,0.7-1.9-8.8-1.6-10.2
				c1.1-5,2.5-10,4.8-14.6c0.6-1.2,1.3-2.3,2.2-3.2c0.9-0.9,0.5,0.4-0.4-1.1c0.3,0.5,0.2,1.1,0.3,1.6c0.4,7.1-4.8,14-9.8,18.4
				c-3.9,3.3-8.6,5.8-13.3,7.7c-3.5,1.4-12.7,4.8-11.1-2c0.5-2,1.9-3.5,3.9-4.2c3.9-1.4,2.8,3.7,2.1,5.5c-1,2.6-3.1,4.4-5.6,5.5
				c-1.9,0.9-7.3,1.5-6.3-2.1c0.4-1.4,1.3-2.5,2.3-3.6c1.6-1.8-1.1-1.6-2-0.5c-1,1.1-2.6,1.8-3.9,2.7c-3.4,2.4-6.6,5-9.7,7.8
				c-7.5,6.5-15,13.7-20.3,22.1c-1.4,2.3-2.7,4.5-3.5,7.1c1.1,0.6,2.2,1.3,3.2,1.9c0.8-9,3.5-18,5.8-26.7c1.2-4.6,2.4-9.1,3.8-13.6
				c0.6-1.8,1.1-3.7,1.8-5.5c0.6-1.5,1.6-2.4,3-3c3.9-1.6,0,4.8-0.5,5.4c-1.9,2.3-3.4,0.8-3.5-1.5c-0.1-1.8,0.7-3.6,1.5-5.2
				c-0.3-0.7-0.6-1.4-0.9-2.1c-0.5,1-1.1,1.9-2,2.7c-0.5,0.5-1.2,0.9-1.8,1.3c-3.4,2.1-7.4,3.4-11.2,4.2c-1.9,0.4-3.9,0.6-5.8,0.3
				c-2.2-0.4-0.2-4.2,0.3-5.4c0.8-2,2-4,3.9-5.1c2.1-1.2,1.2,1.5,0.7,2.5c-2.3,4.8-12.7,6.9-17.4,8.1c-3.1,0.8-7.3,1.9-10.5,0.6
				c-3.4-1.3,4.8-14.5,7.3-6.1c1.1,3.8-2.6,6.8-5.6,7.9c-7.6,2.6-4-9.8-3.3-13.2c2.1-9,4.8-18.9,10.3-26.5c1.5-2,5.1-6.2,5.6-1.9
				c0.6,5.7-2.4,11.7-5.2,16.4c-5.7,9.6-14.8,17.9-24.3,23.7c-5.1,3.1-15.6,7.5-19.2,0.1c-1.4-2.9-0.7-6.3-0.4-9.3
				c0.6-5.5,1.8-10.9,3.8-16.1c2-5.4,5.5-11.6,11.2-13.8c4-1.5,6.2,1,6.2,4.9c0,7-5.4,13.5-9.9,18.2c-7.3,7.8-16.5,13.8-26.3,18.1
				c-5.1,2.2-22,9.2-24.8,0.8c-1.5-4.5,0.5-11.1,1.5-15.6c1-4.6,2.6-9,4.7-13.2c2.7-5.5,6.9-11.2,12.5-14c3.2-1.6,6.7-1.8,6.8,2.5
				c0.1,7.1-5.6,14.4-9.8,19.6c-7.7,9.8-17.3,18.5-27.3,26c-5.1,3.8-12,8.9-18.8,8.6c-7.4-0.4-4.7-14.6-4-18.8
				c1.8-9.8,5.4-19.5,10-28.4c2.5-4.7,5.5-8.8,9.4-12.4c0.5-0.5,1.1-0.9,1.7-1.3c0.4-0.2,0.7-0.4,1.1-0.7c1.1-0.3,0.9-0.8-0.7-1.5
				c-0.5,1.4-2,2.5-3,3.4c-2.7,2.3-6.3,3.9-9.5,5.5c-7.1,3.7-14.4,6.9-22.1,9.2c-7.6,2.3-17.4,3.9-24-1.6
				C926.1,68.7,925.8,71.5,927.3,72.8L927.3,72.8z"/>
		</g>
	</g>
</g>
</svg>
